HIERARCHY
ROOT Root
{
  OFFSET 0.0 0.0 0.0
  CHANNELS 6 Xposition Yposition Zposition Zrotation Yrotation Xrotation
  JOINT Hips
  {
    OFFSET 0.0 100.0 0.0
    CHANNELS 6 Xposition Yposition Zposition Zrotation Yrotation Xrotation
    JOINT Spine1
    {
      OFFSET 5.003913 -0.037094 -0.013727
      CHANNELS 3 Zrotation Yrotation Xrotation
      JOINT Spine2
      {
        OFFSET 7.125363 -1e-06 0.0
        CHANNELS 3 Zrotation Yrotation Xrotation
        JOINT Chest
        {
          OFFSET 7.594027 1e-06 0.0
          CHANNELS 3 Zrotation Yrotation Xrotation
          JOINT Neck1
          {
            OFFSET 26.313086 -0.460272 -0.181672
            CHANNELS 3 Zrotation Yrotation Xrotation
            JOINT Neck2
            {
              OFFSET 8.045911 0.0 0.0
              CHANNELS 3 Zrotation Yrotation Xrotation
              JOINT Head
              {
                OFFSET 6.432774 0.0 0.0
                CHANNELS 3 Zrotation Yrotation Xrotation
                JOINT HeadEnd
                {
                  OFFSET 16.169773 0.06451 0.00362
                  CHANNELS 3 Zrotation Yrotation Xrotation
                }
                JOINT Jaw
                {
                  OFFSET 0.108741 3.12938 0.002639
                  CHANNELS 3 Zrotation Yrotation Xrotation
                }
                JOINT LeftEye
                {
                  OFFSET 4.45173 8.166359 3.206392
                  CHANNELS 3 Zrotation Yrotation Xrotation
                }
                JOINT RightEye
                {
                  OFFSET 4.436895 8.135758 -3.222429
                  CHANNELS 3 Zrotation Yrotation Xrotation
                }
              }
            }
          }
          JOINT LeftShoulder
          {
            OFFSET 23.218927 5.195579 1.621656
            CHANNELS 3 Zrotation Yrotation Xrotation
            JOINT LeftArm
            {
              OFFSET 15.902118 2e-06 -2e-06
              CHANNELS 3 Zrotation Yrotation Xrotation
              JOINT LeftForeArm
              {
                OFFSET 28.739307 0.0 -1e-06
                CHANNELS 3 Zrotation Yrotation Xrotation
                JOINT LeftHand
                {
                  OFFSET 27.093981 -4e-06 0.0
                  CHANNELS 3 Zrotation Yrotation Xrotation
                  JOINT LeftHandThumb1
                  {
                    OFFSET 2.276781 3.380274 0.83384
                    CHANNELS 3 Zrotation Yrotation Xrotation
                    JOINT LeftHandThumb2
                    {
                      OFFSET 4.705309 -1e-06 -1e-06
                      CHANNELS 3 Zrotation Yrotation Xrotation
                      JOINT LeftHandThumb3
                      {
                        OFFSET 2.798515 0.0 3e-06
                        CHANNELS 3 Zrotation Yrotation Xrotation
                        JOINT LeftHandThumbEnd
                        {
                          OFFSET 3.180793 4e-06 -4e-06
                          CHANNELS 3 Zrotation Yrotation Xrotation
                        }
                      }
                    }
                  }
                  JOINT LeftHandIndex1
                  {
                    OFFSET 3.247786 2.352677 0.137192
                    CHANNELS 3 Zrotation Yrotation Xrotation
                    JOINT LeftHandIndex2
                    {
                      OFFSET 6.367095 1e-06 0.0
                      CHANNELS 3 Zrotation Yrotation Xrotation
                      JOINT LeftHandIndex3
                      {
                        OFFSET 3.662364 0.0 0.0
                        CHANNELS 3 Zrotation Yrotation Xrotation
                        JOINT LeftHandIndex4
                        {
                          OFFSET 2.329242 4e-06 -4e-06
                          CHANNELS 3 Zrotation Yrotation Xrotation
                          JOINT LeftHandIndexEnd
                          {
                            OFFSET 2.767823 1e-06 0.0
                            CHANNELS 3 Zrotation Yrotation Xrotation
                          }
                        }
                      }
                    }
                  }
                  JOINT LeftHandMiddle1
                  {
                    OFFSET 3.163612 0.945023 -0.406112
                    CHANNELS 3 Zrotation Yrotation Xrotation
                    JOINT LeftHandMiddle2
                    {
                      OFFSET 6.276789 3e-06 0.0
                      CHANNELS 3 Zrotation Yrotation Xrotation
                      JOINT LeftHandMiddle3
                      {
                        OFFSET 4.35652 -1e-06 4e-06
                        CHANNELS 3 Zrotation Yrotation Xrotation
                        JOINT LeftHandMiddle4
                        {
                          OFFSET 2.996877 0.0 8e-06
                          CHANNELS 3 Zrotation Yrotation Xrotation
                          JOINT LeftHandMiddleEnd
                          {
                            OFFSET 2.323256 3e-06 -4e-06
                            CHANNELS 3 Zrotation Yrotation Xrotation
                          }
                        }
                      }
                    }
                  }
                  JOINT LeftHandRing1
                  {
                    OFFSET 2.882606 -0.309162 0.107445
                    CHANNELS 3 Zrotation Yrotation Xrotation
                    JOINT LeftHandRing2
                    {
                      OFFSET 6.033198 0.0 4e-06
                      CHANNELS 3 Zrotation Yrotation Xrotation
                      JOINT LeftHandRing3
                      {
                        OFFSET 4.350578 3e-06 0.0
                        CHANNELS 3 Zrotation Yrotation Xrotation
                        JOINT LeftHandRing4
                        {
                          OFFSET 2.651321 2e-06 -7e-06
                          CHANNELS 3 Zrotation Yrotation Xrotation
                          JOINT LeftHandRingEnd
                          {
                            OFFSET 1.937663 1e-06 -4e-06
                            CHANNELS 3 Zrotation Yrotation Xrotation
                          }
                        }
                      }
                    }
                  }
                  JOINT LeftHandPinky1
                  {
                    OFFSET 2.865315 -1.525436 0.575687
                    CHANNELS 3 Zrotation Yrotation Xrotation
                    JOINT LeftHandPinky2
                    {
                      OFFSET 5.54936 1e-06 -8e-06
                      CHANNELS 3 Zrotation Yrotation Xrotation
                      JOINT LeftHandPinky3
                      {
                        OFFSET 3.070974 0.0 -4e-06
                        CHANNELS 3 Zrotation Yrotation Xrotation
                        JOINT LeftHandPinky4
                        {
                          OFFSET 1.549672 1e-06 0.0
                          CHANNELS 3 Zrotation Yrotation Xrotation
                          JOINT LeftHandPinkyEnd
                          {
                            OFFSET 1.952123 0.0 0.0
                            CHANNELS 3 Zrotation Yrotation Xrotation
                          }
                        }
                      }
                    }
                  }
                }
              }
            }
          }
          JOINT RightShoulder
          {
            OFFSET 23.161716 5.296122 -1.380114
            CHANNELS 3 Zrotation Yrotation Xrotation
            JOINT RightArm
            {
              OFFSET -16.027195 -2e-06 1.1e-05
              CHANNELS 3 Zrotation Yrotation Xrotation
              JOINT RightForeArm
              {
                OFFSET -28.736639 4e-06 2e-06
                CHANNELS 3 Zrotation Yrotation Xrotation
                JOINT RightHand
                {
                  OFFSET -27.133619 6e-06 0.0
                  CHANNELS 3 Zrotation Yrotation Xrotation
                  JOINT RightHandThumb1
                  {
                    OFFSET -2.274328 -3.351035 -0.83067
                    CHANNELS 3 Zrotation Yrotation Xrotation
                    JOINT RightHandThumb2
                    {
                      OFFSET -4.703594 -3e-06 2e-06
                      CHANNELS 3 Zrotation Yrotation Xrotation
                      JOINT RightHandThumb3
                      {
                        OFFSET -2.794935 -4e-06 -3e-06
                        CHANNELS 3 Zrotation Yrotation Xrotation
                        JOINT RightHandThumbEnd
                        {
                          OFFSET -3.183852 4e-06 1e-06
                          CHANNELS 3 Zrotation Yrotation Xrotation
                        }
                      }
                    }
                  }
                  JOINT RightHandIndex1
                  {
                    OFFSET -3.253496 -2.33755 -0.127667
                    CHANNELS 3 Zrotation Yrotation Xrotation
                    JOINT RightHandIndex2
                    {
                      OFFSET -6.344434 0.0 0.0
                      CHANNELS 3 Zrotation Yrotation Xrotation
                      JOINT RightHandIndex3
                      {
                        OFFSET -3.654871 0.0 -8e-06
                        CHANNELS 3 Zrotation Yrotation Xrotation
                        JOINT RightHandIndex4
                        {
                          OFFSET -2.327586 -1e-06 0.0
                          CHANNELS 3 Zrotation Yrotation Xrotation
                          JOINT RightHandIndexEnd
                          {
                            OFFSET -2.770001 3e-06 8e-06
                            CHANNELS 3 Zrotation Yrotation Xrotation
                          }
                        }
                      }
                    }
                  }
                  JOINT RightHandMiddle1
                  {
                    OFFSET -3.168223 -0.944764 0.411762
                    CHANNELS 3 Zrotation Yrotation Xrotation
                    JOINT RightHandMiddle2
                    {
                      OFFSET -6.266691 -1e-06 -4e-06
                      CHANNELS 3 Zrotation Yrotation Xrotation
                      JOINT RightHandMiddle3
                      {
                        OFFSET -4.348901 0.0 0.0
                        CHANNELS 3 Zrotation Yrotation Xrotation
                        JOINT RightHandMiddle4
                        {
                          OFFSET -3.00024 2e-06 -4e-06
                          CHANNELS 3 Zrotation Yrotation Xrotation
                          JOINT RightHandMiddleEnd
                          {
                            OFFSET -2.321477 -4e-06 -4e-06
                            CHANNELS 3 Zrotation Yrotation Xrotation
                          }
                        }
                      }
                    }
                  }
                  JOINT RightHandRing1
                  {
                    OFFSET -2.885654 0.293261 -0.119232
                    CHANNELS 3 Zrotation Yrotation Xrotation
                    JOINT RightHandRing2
                    {
                      OFFSET -6.032835 -1e-06 -4e-06
                      CHANNELS 3 Zrotation Yrotation Xrotation
                      JOINT RightHandRing3
                      {
                        OFFSET -4.33881 0.0 -4e-06
                        CHANNELS 3 Zrotation Yrotation Xrotation
                        JOINT RightHandRing4
                        {
                          OFFSET -2.654903 -4e-06 -4e-06
                          CHANNELS 3 Zrotation Yrotation Xrotation
                          JOINT RightHandRingEnd
                          {
                            OFFSET -1.935122 0.0 4e-06
                            CHANNELS 3 Zrotation Yrotation Xrotation
                          }
                        }
                      }
                    }
                  }
                  JOINT RightHandPinky1
                  {
                    OFFSET -2.866241 1.503904 -0.60527
                    CHANNELS 3 Zrotation Yrotation Xrotation
                    JOINT RightHandPinky2
                    {
                      OFFSET -5.553177 -2e-06 0.0
                      CHANNELS 3 Zrotation Yrotation Xrotation
                      JOINT RightHandPinky3
                      {
                        OFFSET -3.062664 -1e-06 -4e-06
                        CHANNELS 3 Zrotation Yrotation Xrotation
                        JOINT RightHandPinky4
                        {
                          OFFSET -1.546529 2e-06 4e-06
                          CHANNELS 3 Zrotation Yrotation Xrotation
                          JOINT RightHandPinkyEnd
                          {
                            OFFSET -1.952341 0.0 -4e-06
                            CHANNELS 3 Zrotation Yrotation Xrotation
                          }
                        }
                      }
                    }
                  }
                }
              }
            }
          }
        }
      }
    }
    JOINT LeftLeg
    {
      OFFSET -8.443107 2.567604 10.043214
      CHANNELS 3 Zrotation Yrotation Xrotation
      JOINT LeftShin
      {
        OFFSET 43.229198 1e-06 -1e-06
        CHANNELS 3 Zrotation Yrotation Xrotation
        JOINT LeftFoot
        {
          OFFSET 42.298611 1e-06 1e-06
          CHANNELS 3 Zrotation Yrotation Xrotation
          JOINT LeftToeBase
          {
            OFFSET 14.165858 1e-06 0.0
            CHANNELS 3 Zrotation Yrotation Xrotation
            JOINT LeftToeEnd
            {
              OFFSET 6.7141 -0.234461 0.0
              CHANNELS 3 Zrotation Yrotation Xrotation
            }
          }
        }
      }
    }
    JOINT RightLeg
    {
      OFFSET -8.303923 2.592729 -10.047278
      CHANNELS 3 Zrotation Yrotation Xrotation
      JOINT RightShin
      {
        OFFSET -43.369682 0.0 1e-06
        CHANNELS 3 Zrotation Yrotation Xrotation
        JOINT RightFoot
        {
          OFFSET -42.260784 4e-06 2e-06
          CHANNELS 3 Zrotation Yrotation Xrotation
          JOINT RightToeBase
          {
            OFFSET -14.222245 -2e-06 -1e-06
            CHANNELS 3 Zrotation Yrotation Xrotation
            JOINT RightToeEnd
            {
              OFFSET -6.660062 0.232574 -2e-06
              CHANNELS 3 Zrotation Yrotation Xrotation
            }
          }
        }
      }
    }
  }
}
MOTION
Frames: 4
Frame Time: 0.03333333333333333
0.0 0.0 0.0 0.0 -0.0 0.0 -13.134597 50.684719 121.465721 97.993507 -61.889027 81.986015 9.174251 -0.859162 -0.069987 -5.83581 -0.870638 0.182705 18.934351 -0.438866 -1.499051 21.77759 -0.261243 1.725958 -2.513888 -0.983946 1.973829 -27.06584 -1.89768 1.484433 6e-06 -0.0 -0.0 -0.193338 0.060111 -0.048864 -0.037931 0.065657 0.011326 -0.028208 0.04606 -0.115631 -66.48484 -74.205681 79.358452 81.675652 2.208803 -15.210406 35.644333 -1.370061 0.174564 -42.139381 72.052734 -38.831867 17.63662 -26.322729 52.411182 -19.466661 -14.395596 29.410393 -2e-06 -8.77482 -1e-06 14.899645 -18.813059 7.383844 -0.609776 -1.795652 -3.889327 -4.807088 -11.046809 -2.93785 3e-06 -20.976011 1e-06 -5.019969 -25.033554 -4.031878 6e-06 -0.0 -0.0 -10.634529 -5.686968 -3.565586 10.573271 -17.922947 -3.113902 3e-06 -13.821209 2e-06 -0.501776 -31.181498 -4.027015 -12.27734 -59.981007 8.966685 -13.982711 -7.150196 -2.875041 13.772726 -8.401489 -3.21824 0.347733 -34.211544 0.771655 -0.963029 -17.73337 2.621017 0.0 -1e-06 2e-06 -17.346413 -20.095213 -4.20178 21.757553 -1.638375 3.866426 1e-06 -6.338824 1e-06 -1.697588 -22.59174 -6.194006 -1e-06 -4e-06 -2e-06 138.87796 -79.336403 50.76358 76.810799 10.456373 -34.969692 31.409554 -1.913124 -0.535433 -23.455854 61.14315 -10.736719 22.182106 -20.375895 49.933327 -16.701813 -16.743528 28.476532 -2e-06 -12.690598 0.0 16.907391 -17.916792 2.215171 -0.105919 -1.513856 -4.275882 -5.039041 -5.612871 -2.953558 5e-06 -11.020525 -1e-06 -6.111295 -15.89533 -3.840472 -1e-06 -0.0 0.0 -10.283368 -5.680288 -4.341838 11.028291 -11.302406 -2.372633 -1.384269 -14.238579 -6.320123 -0.625438 -26.924187 -3.827596 -3.473705 -50.167133 -4.393413 -13.708522 -7.363476 -3.720939 18.14115 -14.052737 -3.242675 6e-06 -18.787275 -2e-06 -0.429711 -8.456043 2.555503 -1e-06 -0.0 -1e-06 -15.923536 -20.094484 -5.473585 30.419207 -7.190827 1.735924 4e-06 -8.162925 -1e-06 -1.861903 -22.861471 -6.167941 -0.0 -3e-06 -1e-06 98.039276 -13.126216 5.76969 132.655472 -0.657242 0.463131 -106.661331 10.741014 -6.303316 -34.685925 1.849973 1.466815 -1.000004 -0.0 -0.0 -60.832802 -6.250412 3.129992 106.529701 -1.360543 0.115535 -79.027588 13.261847 -14.918937 -44.912434 1.077896 1.225374 -1.000002 -0.0 0.0 
0.0 0.0 0.0 0.0 -0.0 0.0 -13.052214 50.641727 122.673988 98.295723 -61.643559 80.674484 9.16749 -0.973989 -0.006008 -5.841028 -0.8953 0.338095 19.017725 -0.532105 -1.292517 21.957527 -0.455716 1.725589 -2.529374 -0.951606 2.208073 -27.119053 -1.962693 1.857592 5e-06 0.0 -0.0 -0.189153 0.064948 -0.049743 -0.039547 0.062473 0.011532 -0.035272 0.060778 -0.117814 -67.673805 -73.919296 80.736328 81.520554 1.072158 -15.197675 35.903236 -1.301867 0.157857 -42.176552 72.753082 -38.702152 17.636621 -26.322721 52.411182 -19.466658 -14.395596 29.410381 -2e-06 -8.774817 -1e-06 14.905363 -18.686188 7.364158 -0.609776 -1.795653 -3.889327 -4.807086 -11.04681 -2.937851 4e-06 -20.976011 -2e-06 -5.019967 -25.033552 -4.031881 6e-06 1e-06 1e-06 -10.634529 -5.686969 -3.565588 10.57327 -17.922951 -3.113904 3e-06 -13.821206 1e-06 -0.501773 -31.181498 -4.027017 -12.164848 -60.036995 8.926906 -13.982706 -7.150197 -2.875041 13.772724 -8.401488 -3.218242 0.347734 -34.211544 0.771655 -0.963029 -17.733366 2.621019 -0.0 -1e-06 1e-06 -17.346407 -20.095211 -4.201783 21.757551 -1.638376 3.866425 1e-06 -6.338823 1e-06 -1.697585 -22.591738 -6.194005 -1e-06 -4e-06 -4e-06 139.909302 -79.18679 49.859123 77.867332 10.022397 -34.033756 30.870266 -1.822433 -0.462127 -25.527075 61.633556 -13.072976 22.182096 -20.375885 49.9333 -16.701807 -16.743525 28.476524 -2e-06 -12.690595 0.0 16.839235 -17.965176 2.311541 -0.10592 -1.513855 -4.275881 -5.039041 -5.612869 -2.953557 6e-06 -11.020519 -2e-06 -6.111292 -15.89533 -3.840469 -0.0 -1e-06 0.0 -10.283365 -5.680287 -4.341837 11.02829 -11.302399 -2.372633 -1.384265 -14.238573 -6.320119 -0.625437 -26.924175 -3.8276 -3.52431 -50.228569 -4.368248 -13.708519 -7.363472 -3.720937 18.141144 -14.052733 -3.242676 6e-06 -18.787266 -1e-06 -0.429711 -8.456038 2.555501 -1e-06 0.0 1e-06 -15.923528 -20.094475 -5.473583 30.419201 -7.190823 1.735921 3e-06 -8.162921 2e-06 -1.8619 -22.86146 -6.167938 0.0 -3e-06 -1e-06 97.596085 -13.482568 6.011082 132.264847 -0.577767 0.456364 -106.325882 11.656168 -6.51589 -36.785458 1.821945 1.387614 -1.000003 -0.0 -0.0 -59.280537 -5.908252 3.222601 104.940269 -1.583215 0.128608 -78.947838 13.555653 -15.096951 -44.993069 1.08661 1.198281 -1.000002 -0.0 -1e-06 
0.0 0.0 0.0 0.0 -0.0 0.0 -12.94892 50.498806 123.890152 98.405823 -61.46302 79.447968 9.086411 -1.044224 0.07412 -5.851228 -0.895088 0.495596 19.073883 -0.567133 -1.07248 22.149965 -0.663964 1.729455 -2.549174 -0.891585 2.508871 -27.126089 -2.071934 2.253952 7e-06 0.0 0.0 -0.184833 0.084718 -0.052588 -0.052659 0.081149 0.006392 -0.052224 0.083897 -0.118137 -68.909508 -73.550621 82.194214 81.396301 -0.116522 -15.159132 36.193115 -1.231183 0.171186 -42.143448 73.402054 -38.546612 17.636629 -26.322718 52.411171 -19.466654 -14.395596 29.410378 -1e-06 -8.774817 -2e-06 14.939054 -18.58563 7.338616 -0.609775 -1.795653 -3.889326 -4.807087 -11.046805 -2.93785 4e-06 -20.976006 -1e-06 -5.019965 -25.033543 -4.03188 5e-06 -0.0 -0.0 -10.634529 -5.686968 -3.565587 10.573271 -17.922945 -3.113901 4e-06 -13.821205 2e-06 -0.501773 -31.181488 -4.027016 -12.085612 -60.071693 8.916075 -13.982711 -7.150195 -2.875042 13.772726 -8.40149 -3.218239 0.347737 -34.21154 0.771654 -0.963027 -17.733364 2.621019 0.0 -0.0 -1e-06 -17.346413 -20.095209 -4.201781 21.757553 -1.638375 3.866428 1e-06 -6.338821 1e-06 -1.697587 -22.591734 -6.194005 -1e-06 -5e-06 -3e-06 140.47113 -79.056496 49.452221 78.993073 9.478542 -33.191608 30.497807 -1.778647 -0.414554 -27.10778 62.283978 -15.017466 22.182112 -20.375885 49.933308 -16.701817 -16.74353 28.47653 -2e-06 -12.690601 0.0 16.773293 -18.023516 2.406945 -0.105919 -1.513855 -4.27588 -5.03904 -5.61287 -2.953557 4e-06 -11.020525 -1e-06 -6.111296 -15.895334 -3.840474 -1e-06 -1e-06 -0.0 -10.283369 -5.680288 -4.341837 11.028292 -11.302402 -2.372635 -1.384268 -14.238576 -6.32012 -0.625436 -26.924181 -3.8276 -3.538799 -50.284847 -4.374728 -13.708523 -7.363474 -3.720938 18.141153 -14.052736 -3.242676 6e-06 -18.78727 -0.0 -0.429711 -8.45604 2.555503 -0.0 1e-06 -1e-06 -15.923536 -20.094482 -5.473584 30.41921 -7.190825 1.735924 4e-06 -8.162924 1e-06 -1.8619 -22.861464 -6.167942 0.0 -2e-06 1e-06 97.967621 -14.099344 6.288412 131.372253 -0.532969 0.444008 -105.486053 12.40498 -6.815125 -39.081654 1.803017 1.317201 -0.999999 -0.0 -0.0 -57.751865 -5.486781 3.33106 103.370369 -1.785712 0.153739 -78.822952 13.828287 -15.328598 -44.941059 1.0954 1.177131 -1.0 -0.0 -0.0 
0.0 0.0 0.0 0.0 -0.0 0.0 -12.832151 50.27063 125.051025 98.326782 -61.380077 78.427803 8.954767 -1.04746 0.143326 -5.875927 -0.874428 0.643146 19.059999 -0.530303 -0.863816 22.379045 -0.844497 1.732907 -2.56364 -0.827748 2.852724 -27.114761 -2.253099 2.669913 6e-06 0.0 0.0 -0.178777 0.120542 -0.058872 -0.064763 0.11859 -0.000653 -0.065828 0.119761 -0.123314 -70.021049 -73.160599 83.512375 81.309959 -1.411724 -15.160416 36.458073 -1.184916 0.187105 -41.979786 73.991852 -38.274811 17.636625 -26.322729 52.411205 -19.466663 -14.395598 29.410395 -5e-06 -8.774821 -1e-06 14.992262 -18.511665 7.303351 -0.609774 -1.795652 -3.889327 -4.807088 -11.046811 -2.937851 6e-06 -20.976015 -1e-06 -5.019967 -25.033556 -4.031883 6e-06 0.0 -0.0 -10.634532 -5.686969 -3.565587 10.573275 -17.922947 -3.113902 4e-06 -13.821209 2e-06 -0.501771 -31.181498 -4.027017 -11.98701 -60.03791 8.856222 -13.982714 -7.150196 -2.875042 13.772732 -8.401489 -3.218243 0.34774 -34.211544 0.771653 -0.963026 -17.733366 2.621018 -0.0 0.0 1e-06 -17.346415 -20.095213 -4.201785 21.757557 -1.638378 3.866427 1e-06 -6.338821 1e-06 -1.697586 -22.591743 -6.194008 -0.0 -5e-06 -4e-06 140.39978 -78.886795 49.674355 80.197319 8.798739 -32.340107 30.286015 -1.743038 -0.411813 -28.430122 63.037399 -16.789759 22.182116 -20.375891 49.933315 -16.701811 -16.74353 28.47653 -3e-06 -12.690601 -3e-06 16.719156 -18.055191 2.471408 -0.105921 -1.513857 -4.275881 -5.039039 -5.612868 -2.953557 3e-06 -11.020523 -2e-06 -6.111297 -15.89533 -3.840471 -1e-06 -0.0 -2e-06 -10.283373 -5.68029 -4.34184 11.028294 -11.302402 -2.372633 -1.384269 -14.238579 -6.320121 -0.625438 -26.924187 -3.827604 -3.542534 -50.280102 -4.371407 -13.708526 -7.363477 -3.720941 18.141153 -14.052737 -3.242675 5e-06 -18.78727 -1e-06 -0.429711 -8.456043 2.555503 -1e-06 -0.0 -1e-06 -15.923539 -20.094482 -5.473586 30.419218 -7.190827 1.735926 3e-06 -8.162926 1e-06 -1.861902 -22.861465 -6.167942 -0.0 -2e-06 1e-06 99.123474 -14.926476 6.577419 129.814133 -0.507262 0.443418 -104.138557 12.976887 -7.339926 -41.422062 1.792069 1.242264 -0.999999 -0.0 -0.0 -56.332718 -5.054205 3.439583 101.90229 -1.936296 0.180665 -78.716637 14.042418 -15.610175 -44.575272 1.105132 1.169267 -1.0 -1e-06 -0.0 
